<?xml version="1.0" encoding="UTF-8" standalone="no"?>
<!-- Created with Inkscape (http://www.inkscape.org/) -->

<svg
   width="100%"
   height="100%"
   viewBox="0 0 43.850784 58.651474"
   version="1.1"
   id="svg1"
   inkscape:version="1.4.2 (f4327f4, 2025-05-13)"
   sodipodi:docname="MoneyLynx_0.svg"
   xmlns:inkscape="http://www.inkscape.org/namespaces/inkscape"
   xmlns:sodipodi="http://sodipodi.sourceforge.net/DTD/sodipodi-0.dtd"
   xmlns="http://www.w3.org/2000/svg"
   xmlns:svg="http://www.w3.org/2000/svg">
  <sodipodi:namedview
     id="namedview1"
     pagecolor="#f3f3f3"
     bordercolor="#ffffff"
     borderopacity="1"
     inkscape:showpageshadow="0"
     inkscape:pageopacity="0"
     inkscape:pagecheckerboard="1"
     inkscape:deskcolor="#505050"
     inkscape:document-units="mm"
     inkscape:zoom="0.89174383"
     inkscape:cx="82.983473"
     inkscape:cy="201.29099"
     inkscape:window-width="1892"
     inkscape:window-height="1344"
     inkscape:window-x="1686"
     inkscape:window-y="226"
     inkscape:window-maximized="0"
     inkscape:current-layer="layer1" />
  <defs
     id="defs1" />
  <g
     inkscape:label="Layer 1"
     inkscape:groupmode="layer"
     id="layer1"
     transform="translate(-83.079165,-119.0625)">
    <path
       style="fill:#38BDF8"
       d="m 102.14906,177.44787 c -1.0417,-0.1989 -2.529983,-0.56998 -3.307293,-0.82464 -0.77732,-0.25465 -2.12767,-0.81766 -3.0008,-1.25113 -0.87312,-0.43347 -2.3075,-1.29866 -3.18751,-1.92265 -0.88001,-0.62399 -2.32823,-1.91299 -3.21827,-2.86445 -0.89004,-0.95145 -1.99194,-2.27304 -2.44866,-2.93687 -0.45672,-0.66382 -1.23903,-2.06945 -1.73846,-3.12362 -0.49943,-1.05418 -1.14124,-2.83174 -1.42625,-3.95015 -0.285,-1.11841 -0.59678,-3.0234 -0.69283,-4.23333 -0.0986,-1.24164 -0.0467,-3.10732 0.119,-4.28317 0.16151,-1.14581 0.65173,-3.15208 1.08938,-4.45838 0.43765,-1.3063 1.27372,-3.19353 1.85794,-4.19385 0.58422,-1.00032 1.74333,-2.55671 2.57581,-3.45864 0.83248,-0.90194 2.21131,-2.15511 3.06406,-2.78483 0.85276,-0.62973 1.64478,-1.14495 1.76006,-1.14495 0.11528,0 0.3313,0.34912 0.48005,0.77583 0.26225,0.7523 0.21507,0.81626 -1.5549,2.10767 -1.00395,0.73251 -2.39394,2.05916 -3.08885,2.94813 -0.69492,0.88896 -1.64744,2.35152 -2.11673,3.25014 -0.46929,0.89862 -1.08938,2.32681 -1.37798,3.17376 -0.2886,0.84695 -0.67194,2.71946 -0.85186,4.16113 -0.2634,2.11059 -0.26046,3.09227 0.0151,5.03914 0.18822,1.32985 0.62968,3.26308 0.98102,4.29605 0.35133,1.03298 1.12424,2.69528 1.71757,3.694 0.59333,0.99871 1.87039,2.655 2.83791,3.68062 0.96753,1.02563 2.46028,2.34091 3.31723,2.92286 0.85696,0.58195 2.40605,1.44599 3.44243,1.92011 1.03639,0.47411 2.717783,1.07198 3.736423,1.3286 1.20762,0.30423 2.81879,0.46274 4.63021,0.45554 1.94299,-0.008 3.39855,-0.17617 4.842,-0.56033 1.13514,-0.3021 2.8894,-0.98307 3.89838,-1.51327 1.00897,-0.5302 2.63994,-1.64048 3.62438,-2.46727 1.14918,-0.96516 2.38192,-2.37759 3.44381,-3.94579 0.90967,-1.34339 1.65393,-2.61 1.65393,-2.81468 0,-0.20469 -0.41671,-0.52285 -0.92604,-0.70702 -0.50932,-0.18418 -0.92604,-0.42557 -0.92604,-0.53644 0,-0.11086 0.74414,-0.70166 1.65365,-1.31289 0.9095,-0.61123 2.08277,-1.44536 2.60726,-1.85362 l 0.95361,-0.7423 0.16928,2.17449 c 0.0931,1.19597 0.16999,2.73602 0.17087,3.42234 l 0.002,1.24785 -0.93734,-0.55305 c -0.51553,-0.30417 -0.97399,-0.50851 -1.01879,-0.45409 -0.0448,0.0544 -0.46377,0.82571 -0.93104,1.71399 -0.46726,0.88828 -1.52162,2.41467 -2.34301,3.39199 -0.82138,0.97731 -2.21303,2.31795 -3.09256,2.97919 -0.87952,0.66124 -2.50955,1.66005 -3.62228,2.21959 -1.11272,0.55954 -2.95819,1.26392 -4.10104,1.56529 -1.14285,0.30137 -3.14946,0.60122 -4.45915,0.66633 -1.42635,0.0709 -3.14076,-0.0266 -4.27525,-0.24323 z m 3.34921,-8.03684 v -4.4881 l 0.82682,-0.16536 c 0.45475,-0.0909 1.28819,-0.16537 1.85208,-0.16537 h 1.02526 v 4.34461 c 0,4.3446 0,4.3446 -0.7276,4.48375 -0.40018,0.0765 -1.23362,0.21552 -1.85209,0.30886 l -1.12447,0.16971 z m -3.92201,3.79115 c -0.77465,-0.18747 -1.52464,-0.45704 -1.666643,-0.59904 -0.142,-0.142 -0.22257,-1.07982 -0.17904,-2.08404 l 0.0791,-1.82585 h 1.918233 c 1.05503,0 1.91823,0.0893 1.91823,0.19843 0,0.10914 0,1.21047 0,2.4474 0,1.63478 -0.0903,2.24281 -0.33073,2.22646 -0.1819,-0.0124 -0.96454,-0.17589 -1.73919,-0.36336 z m 9.47826,-6.74006 v -6.36783 h 1.85208 1.85208 v 5.55179 5.55179 l -1.25677,0.63165 c -0.69122,0.34741 -1.52466,0.71463 -1.85208,0.81604 -0.59531,0.18439 -0.59531,0.18439 -0.59531,-6.18344 z m -15.727563,3.18168 c -0.0816,-0.13204 0.34632,-1.11431 0.95094,-2.18281 0.60462,-1.06851 1.61071,-2.70621 2.23575,-3.63933 0.87887,-1.31207 1.07941,-1.80315 0.88481,-2.16676 -0.16932,-0.31638 -0.15297,-0.53113 0.05,-0.65657 0.16889,-0.10437 0.5159,0.0923 0.788583,0.44697 0.26784,0.34835 0.48963,0.79624 0.49287,0.99531 0.003,0.19907 -0.32154,0.73596 -0.72173,1.19309 -0.400183,0.45713 -1.501513,2.04612 -2.447393,3.53108 -0.94589,1.48497 -1.80206,2.70425 -1.90262,2.70951 -0.10055,0.005 -0.24959,-0.0985 -0.33119,-0.23049 z m 9.090453,-10.01253 c -0.41416,-1.06845 -0.58713,-2.07272 -0.58105,-3.37344 0.006,-1.23697 0.19681,-2.34442 0.57514,-3.33449 0.31156,-0.81532 0.97624,-1.94642 1.47706,-2.51354 0.50083,-0.56713 0.91555,-0.89712 0.92161,-0.73333 0.006,0.16379 -0.27113,0.9377 -0.61598,1.71979 -0.34484,0.78209 -0.76156,2.05292 -0.92604,2.82407 -0.16448,0.77115 -0.29905,1.80321 -0.29905,2.29347 0,0.49025 0.0697,1.07308 0.15494,1.29516 0.11142,0.29035 0.50162,-0.0538 1.38907,-1.22513 0.67876,-0.89589 1.71036,-1.95515 2.29245,-2.3539 0.58208,-0.39876 1.55037,-0.80164 2.15174,-0.89529 0.60138,-0.0937 1.31576,-0.11935 1.5875,-0.0571 0.33682,0.0772 -0.13756,0.41157 -1.49028,1.05056 -1.10801,0.52338 -2.41514,1.39018 -2.95977,1.9627 -0.53646,0.56395 -1.34013,1.72205 -1.78593,2.57357 -0.44581,0.85153 -0.81055,1.71473 -0.81055,1.91823 0,0.20351 -0.11051,0.37001 -0.24558,0.37001 -0.13506,0 -0.51094,-0.68461 -0.83528,-1.52135 z m -15.932593,-1.30464 c -0.0953,-0.15427 10e-4,-0.95158 0.21507,-1.77179 0.21364,-0.82021 0.7614,-2.23461 1.21724,-3.14311 0.45584,-0.9085 1.48587,-2.66385 2.28896,-3.90078 0.8031,-1.23692 2.18759,-3.14192 3.07665,-4.23333 0.88906,-1.0914 2.48012,-2.89102 3.53569,-3.99913 l 1.919223,-2.01476 -0.51691,-1.16856 c -0.284303,-0.6427 -0.831443,-2.26507 -1.215873,-3.60527 -0.69897,-2.43672 -0.69897,-2.43672 -0.30091,-6.0771 0.39806,-3.64039 0.39806,-3.64039 -0.24028,-4.74583 -0.35108,-0.608 -0.63833,-1.18628 -0.63833,-1.28508 0,-0.0988 0.18638,-0.10811 0.41418,-0.0207 0.30268,0.11615 0.37655,0.0348 0.27441,-0.30242 -0.0769,-0.25375 -0.25655,-0.99391 -0.3993,-1.64481 -0.14275,-0.65089 -0.2067,-1.23629 -0.14212,-1.30086 0.0646,-0.0646 0.15465,-0.0678 0.20017,-0.007 0.0455,0.0606 0.66162,1.05276 1.36911,2.20472 0.707493,1.15196 1.890643,2.8949 2.629223,3.8732 0.73858,0.97829 2.69809,3.28023 4.35447,5.11541 1.65638,1.83519 3.15359,3.33671 3.32714,3.33671 0.17355,0 1.49724,0.63397 2.94153,1.40883 1.44429,0.77486 3.16176,1.74298 3.81661,2.15138 0.65484,0.4084 1.68587,1.14279 2.29118,1.63199 0.60531,0.48919 1.52772,1.47135 2.0498,2.18256 0.86471,1.17798 0.93432,1.40197 0.7817,2.51543 -0.1061,0.77409 -0.29988,1.22231 -0.52844,1.22231 -0.25551,0 -0.36092,-0.37699 -0.36092,-1.29087 0,-1.25297 -0.0528,-1.34036 -1.79929,-2.97657 -1.14842,-1.07591 -2.949,-2.33173 -4.97756,-3.47163 -1.74805,-0.98226 -3.25136,-1.78593 -3.34068,-1.78593 -0.0893,0 -0.20091,0.19982 -0.24796,0.44405 -0.059,0.30644 -0.94713,-0.49306 -2.86555,-2.57968 -1.52901,-1.66306 -3.79119,-4.1905 -5.02708,-5.61652 l -2.24708,-2.59277 -0.25229,1.40214 c -0.138763,0.77118 -0.252193,2.89043 -0.252063,4.70944 2e-4,2.91236 0.0825,3.52846 0.689333,5.15938 0.37901,1.01864 0.83782,2.21746 1.01958,2.66404 0.32715,0.80379 0.30721,0.83626 -1.980903,3.22583 -1.27126,1.32762 -2.91654,3.16489 -3.65618,4.08283 -0.73965,0.91793 -1.98882,2.65375 -2.77594,3.85737 -0.78712,1.20362 -2.11538,3.63721 -2.95169,5.40798 -0.83631,1.77077 -1.59858,3.09335 -1.69392,2.93908 z m 29.184273,-1.77281 c 0,-0.21195 0.49659,-0.4905 1.18223,-0.66315 0.67186,-0.16918 1.30007,-0.51789 1.45521,-0.80776 0.15014,-0.28055 0.27298,-0.58791 0.27298,-0.68303 0,-0.0951 -0.47123,-0.0933 -1.04717,0.004 -0.57595,0.0973 -1.29032,0.0998 -1.5875,0.005 -0.29718,-0.0943 -0.54033,-0.26704 -0.54033,-0.38382 0,-0.11679 0.7194,-0.35387 1.59867,-0.52685 0.87926,-0.17299 1.99973,-0.55115 2.48991,-0.84037 0.49019,-0.28922 0.96099,-0.70758 1.04622,-0.9297 0.0852,-0.22211 0.0428,-0.61337 -0.0942,-0.86946 -0.13705,-0.25609 -0.43428,-0.61923 -0.66051,-0.80698 -0.22622,-0.18775 -0.41132,-0.439 -0.41132,-0.55834 0,-0.11933 0.47901,-0.25358 1.06446,-0.29833 l 1.06446,-0.0814 -1.19397,-1.5875 c -0.65668,-0.87313 -1.19522,-1.73633 -1.19675,-1.91823 -0.002,-0.1819 0.10367,-0.33073 0.23378,-0.33073 0.13011,0 0.91042,0.87979 1.73403,1.95508 0.8236,1.07529 1.51399,2.17662 1.53418,2.4474 0.0202,0.27077 -0.40828,1.18761 -0.95217,2.03741 -0.63252,0.98826 -1.12025,1.49469 -1.35335,1.40524 -0.25902,-0.0994 -0.41756,0.18079 -0.548,0.96845 -0.10094,0.60956 -0.2853,1.30234 -0.40968,1.5395 -0.12437,0.23716 -0.70827,0.62412 -1.29754,0.8599 -0.58927,0.23578 -1.36665,0.42869 -1.72751,0.42869 -0.38175,0 -0.65611,-0.15282 -0.65611,-0.36547 z m -2.48386,-3.55527 c -0.0859,-0.13895 0.02,-0.39881 0.23525,-0.57746 0.21526,-0.17865 1.16645,-0.38704 2.11375,-0.46308 1.06293,-0.0853 1.72236,-0.0371 1.72236,0.12606 0,0.14537 -0.6846,0.38284 -1.52135,0.52772 -0.83674,0.14488 -1.71767,0.34802 -1.95761,0.45141 -0.23994,0.1034 -0.50652,0.0743 -0.5924,-0.0647 z m -1.64294,-1.67721 c -0.077,-0.12464 0.0758,-0.31508 0.33973,-0.42319 0.26388,-0.10811 1.51166,-0.19657 2.77284,-0.19657 1.26118,0 2.38235,0.0893 2.49149,0.19844 0.10914,0.10914 0.14883,0.24309 0.0882,0.29768 -0.0606,0.0546 -1.33469,0.15572 -2.83122,0.22476 -1.49654,0.069 -2.78401,0.0235 -2.86104,-0.10112 z m 4.65597,-1.06035 c -0.3638,-0.15112 -1.64272,-0.2924 -2.84205,-0.31396 -1.19932,-0.0216 -2.18159,-0.12623 -2.18281,-0.2326 -0.001,-0.10636 0.29544,-0.25519 0.65924,-0.33073 0.3638,-0.0755 0.9554,-0.1982 1.31467,-0.27259 0.35926,-0.0744 1.22246,-0.0128 1.91823,0.13689 0.69575,0.14968 1.5329,0.40926 1.86033,0.57684 0.32742,0.16759 0.59531,0.40364 0.59531,0.52457 0,0.12093 -0.14883,0.21233 -0.33073,0.20311 -0.1819,-0.009 -0.62839,-0.14041 -0.99219,-0.29153 z m -0.52917,-4.4542 c -0.21828,-0.14107 -0.71705,-0.25831 -1.10838,-0.26053 -0.43872,-0.002 -1.1538,-0.38686 -1.86515,-1.00252 -0.6345,-0.54916 -1.65377,-1.16353 -2.26505,-1.36527 -0.61128,-0.20174 -1.11141,-0.45807 -1.11141,-0.56963 0,-0.11156 0.20836,-0.24642 0.46302,-0.29969 0.25466,-0.0533 1.47285,0.0614 2.70709,0.25489 1.23424,0.19346 2.51416,0.52872 2.84427,0.74501 0.3634,0.23811 0.6002,0.65869 0.6002,1.06602 0,0.37002 0.12325,0.90305 0.27389,1.18453 0.15064,0.28147 0.18041,0.50995 0.0662,0.50772 -0.11426,-0.002 -0.38634,-0.11947 -0.60463,-0.26053 z m -1.32291,-1.57189 c 0,-0.13693 -0.12698,-0.32745 -0.28218,-0.42337 -0.15521,-0.0959 -0.34572,-0.11086 -0.42337,-0.0332 -0.0777,0.0777 -0.0627,0.26816 0.0332,0.42337 0.0959,0.1552 0.28643,0.28218 0.42337,0.28218 0.13693,0 0.24896,-0.11203 0.24896,-0.24897 z m -12.5149,-6.1748 c -0.6884,-0.39342 -1.18928,-0.97986 -1.62379,-1.90121 -0.40007,-0.84829 -0.68002,-2.03153 -0.77059,-3.25697 -0.0782,-1.05857 -0.0488,-1.86688 0.0655,-1.79626 0.11427,0.0706 0.66437,1.23438 1.22245,2.58612 0.55807,1.35175 1.30089,2.97401 1.65071,3.60504 0.34982,0.63103 0.59444,1.18892 0.5436,1.23975 -0.0508,0.0508 -0.54039,-0.16357 -1.08789,-0.47647 z m 9.31432,-4.02506 c -0.42052,-0.2286 -1.33609,-1.50743 -2.36022,-3.2967 -0.92026,-1.60777 -1.76149,-2.92322 -1.8694,-2.92322 -0.10791,0 -0.27656,0.47563 -0.37477,1.05695 -0.0982,0.58132 -0.27378,1.11579 -0.39015,1.18771 -0.11637,0.0719 -0.3374,-0.0208 -0.49116,-0.2061 -0.18341,-0.221 -0.19863,-0.69577 -0.0443,-1.38026 0.18627,-0.82591 0.12859,-1.28468 -0.27673,-2.20098 -0.43939,-0.9933 -0.45242,-1.1347 -0.0918,-0.99634 0.36702,0.14085 0.39687,-0.0399 0.23576,-1.42798 -0.10144,-0.87409 -0.11481,-1.58925 -0.0297,-1.58925 0.0851,0 0.78989,1.27992 1.56617,2.84427 0.77627,1.56435 2.26278,4.30279 3.30336,6.08542 1.04058,1.78263 1.80601,3.23638 1.70096,3.23055 -0.10505,-0.006 -0.50016,-0.17866 -0.87803,-0.38407 z"
       id="path157" />
  </g>
</svg>
